SourceHebrewSans_0.ufo
<glyph name="I" format="2">
	<unicode hex="0049"/>
	<advance width="232"/>
	<outline>
		<contour>
			<point x="100" y="0" type="line"/>
			<point x="132" y="0" type="line"/>
			<point x="132" y="660" type="line"/>
			<point x="100" y="660" type="line"/>
		</contour>
	</outline>
	<anchor name="aboveUC" x="116" y="680"/>
	<anchor name="belowLC" x="116" y="-20"/>
	<anchor name="ogonekUC" x="90" y="0"/>
	<anchor name="baseLC" x="116" y="0"/>
</glyph>
<glyph name="i" format="2">
	<unicode hex="0069"/>
	<advance width="222"/>
	<outline>
		<contour>
			<point x="96" y="0" type="line"/>
			<point x="126" y="0" type="line"/>
			<point x="126" y="478" type="line"/>
			<point x="96" y="478" type="line"/>
		</contour>
		<contour>
			<point x="112" y="600" type="curve" smooth="yes"/>
			<point x="130" y="600"/>
			<point x="144" y="614"/>
			<point x="144" y="636" type="curve" smooth="yes"/>
			<point x="144" y="656"/>
			<point x="130" y="670"/>
			<point x="112" y="670" type="curve" smooth="yes"/>
			<point x="94" y="670"/>
			<point x="80" y="656"/>
			<point x="80" y="636" type="curve" smooth="yes"/>
			<point x="80" y="614"/>
			<point x="94" y="600"/>
		</contour>
	</outline>
	<anchor name="belowLC" x="110" y="-20"/>
	<anchor name="ogonekLC" x="130" y="0"/>
	<anchor name="aboveUC" x="111" y="500"/>
	<anchor name="baseLC" x="111" y="0"/>
</glyph>
<glyph name="heAlef" format="1">
  <advance width="618"/>
  <unicode hex="05D0"/>
  <outline>
    <contour>
      <point x="418" y="170" type="line"/>
      <point x="494" y="270"/>
      <point x="544" y="395"/>
      <point x="544" y="468" type="curve" smooth="yes"/>
      <point x="544" y="534"/>
      <point x="517" y="558"/>
      <point x="460" y="558" type="curve" smooth="yes"/>
      <point x="440" y="558"/>
      <point x="416" y="558"/>
      <point x="384" y="552" type="curve"/>
      <point x="380" y="520" type="line"/>
      <point x="414" y="526"/>
      <point x="436" y="526"/>
      <point x="456" y="526" type="curve" smooth="yes"/>
      <point x="497" y="526"/>
      <point x="516" y="512"/>
      <point x="516" y="470" type="curve" smooth="yes"/>
      <point x="516" y="393"/>
      <point x="472" y="286"/>
      <point x="394" y="186" type="curve"/>
    </contour>
    <contour>
      <point x="100" y="0" type="curve"/>
      <point x="132" y="0" type="line"/>
      <point x="130" y="29"/>
      <point x="128" y="57"/>
      <point x="128" y="82" type="curve" smooth="yes"/>
      <point x="128" y="243"/>
      <point x="160" y="339"/>
      <point x="205" y="439" type="curve"/>
      <point x="184" y="457" type="line"/>
      <point x="132" y="355"/>
      <point x="98" y="252"/>
      <point x="98" y="84" type="curve" smooth="yes"/>
      <point x="98" y="56"/>
      <point x="98" y="29"/>
    </contour>
    <contour>
      <point x="546" y="-12" type="curve"/>
      <point x="576" y="0" type="line"/>
      <point x="416" y="178"/>
      <point x="254" y="374"/>
      <point x="138" y="558" type="curve"/>
      <point x="108" y="546" type="line"/>
      <point x="227" y="357"/>
      <point x="390" y="161"/>
    </contour>
  </outline>
</glyph>
<glyph name="heBet" format="2">
	<unicode hex="05D1"/>
	<advance width="560"/>
	<outline>
		<contour>
			<point x="426" y="20" type="line"/>
			<point x="454" y="20" type="line"/>
			<point x="454" y="350" type="line" smooth="yes"/>
			<point x="454" y="494"/>
			<point x="385" y="546"/>
			<point x="278" y="546" type="curve" smooth="yes"/>
			<point x="80" y="546" type="line"/>
			<point x="80" y="516" type="line"/>
			<point x="272" y="516" type="line" smooth="yes"/>
			<point x="366" y="516"/>
			<point x="426" y="475"/>
			<point x="426" y="344" type="curve" smooth="yes"/>
		</contour>
		<contour>
			<point x="538" y="0" type="line"/>
			<point x="538" y="30" type="line"/>
			<point x="50" y="30" type="line"/>
			<point x="50" y="0" type="line"/>
		</contour>
	</outline>
</glyph>
<glyph name="heGimel" format="1">
  <advance width="370"/>
  <unicode hex="05D2"/>
  <outline>
    <contour>
      <point x="264" y="0" type="line"/>
      <point x="292" y="0" type="line"/>
      <point x="258" y="426" type="line"/>
      <point x="252" y="514"/>
      <point x="236" y="538"/>
      <point x="178" y="546" type="curve" smooth="yes"/>
      <point x="94" y="558" type="line"/>
      <point x="88" y="528" type="line"/>
      <point x="168" y="518" type="line" smooth="yes"/>
      <point x="218" y="512"/>
      <point x="226" y="491"/>
      <point x="232" y="426" type="curve"/>
    </contour>
    <contour>
      <point x="48" y="-8" type="line"/>
      <point x="160" y="-2"/>
      <point x="256" y="84"/>
      <point x="264" y="156" type="curve"/>
      <point x="254" y="178" type="line"/>
      <point x="240" y="96"/>
      <point x="148" y="30"/>
      <point x="54" y="22" type="curve"/>
    </contour>
  </outline>
</glyph>
<glyph name="heDalet" format="1">
  <advance width="542"/>
  <unicode hex="05D3"/>
  <outline>
    <contour>
      <point x="383" y="0" type="line"/>
      <point x="383" y="398" type="line" smooth="yes"/>
      <point x="383" y="434"/>
      <point x="388" y="482"/>
      <point x="411" y="516" type="curve"/>
      <point x="482" y="516" type="line"/>
      <point x="488" y="546" type="line"/>
      <point x="34" y="546" type="line"/>
      <point x="28" y="516" type="line"/>
      <point x="382" y="516" type="line"/>
      <point x="364" y="487"/>
      <point x="355" y="446"/>
      <point x="355" y="398" type="curve" smooth="yes"/>
      <point x="355" y="0" type="line"/>
    </contour>
  </outline>
</glyph>
<glyph name="heHe" format="1">
  <advance width="642"/>
  <unicode hex="05D4"/>
  <outline>
    <contour>
      <point x="512" y="0" type="line"/>
      <point x="540" y="0" type="line"/>
      <point x="540" y="360" type="line" smooth="yes"/>
      <point x="540" y="496"/>
      <point x="475" y="545"/>
      <point x="375" y="545" type="curve"/>
      <point x="110" y="545" type="line"/>
      <point x="104" y="515" type="line"/>
      <point x="373" y="515" type="line"/>
      <point x="455" y="515"/>
      <point x="512" y="477"/>
      <point x="512" y="360" type="curve" smooth="yes"/>
    </contour>
    <contour>
      <point x="114" y="0" type="line"/>
      <point x="142" y="0" type="line"/>
      <point x="142" y="336" type="line"/>
      <point x="114" y="336" type="line"/>
    </contour>
  </outline>
</glyph>
<glyph name="heVav" format="1">
  <advance width="306"/>
  <unicode hex="05D5"/>
  <outline>
    <contour>
      <point x="176" y="0" type="line"/>
      <point x="204" y="0" type="line"/>
      <point x="204" y="426" type="line" smooth="yes"/>
      <point x="204" y="503"/>
      <point x="186" y="538"/>
      <point x="126" y="546" type="curve" smooth="yes"/>
      <point x="34" y="558" type="line"/>
      <point x="28" y="528" type="line"/>
      <point x="110" y="516" type="line" smooth="yes"/>
      <point x="160" y="509"/>
      <point x="176" y="490"/>
      <point x="176" y="427" type="curve" smooth="yes"/>
    </contour>
  </outline>
</glyph>
<glyph name="heZayin" format="1">
  <advance width="352"/>
  <unicode hex="05D6"/>
  <outline>
    <contour>
      <point x="292" y="517" type="curve"/>
      <point x="298" y="547" type="line"/>
      <point x="203" y="547"/>
      <point x="102" y="548"/>
      <point x="34" y="558" type="curve"/>
      <point x="28" y="528" type="line"/>
      <point x="97" y="518"/>
      <point x="196" y="517"/>
    </contour>
    <contour>
      <point x="202" y="0" type="line"/>
      <point x="232" y="0" type="line"/>
      <point x="188" y="244" type="line" smooth="yes"/>
      <point x="175" y="314"/>
      <point x="168" y="372"/>
      <point x="168" y="416" type="curve" smooth="yes"/>
      <point x="168" y="470"/>
      <point x="180" y="502"/>
      <point x="208" y="518" type="curve"/>
      <point x="178" y="518" type="line"/>
      <point x="152" y="502"/>
      <point x="140" y="468"/>
      <point x="140" y="412" type="curve" smooth="yes"/>
      <point x="140" y="370"/>
      <point x="145" y="314"/>
      <point x="158" y="244" type="curve" smooth="yes"/>
    </contour>
  </outline>
</glyph>
<glyph name="heHet" format="1">
  <advance width="652"/>
  <unicode hex="05D7"/>
  <outline>
    <contour>
      <point x="522" y="0" type="line"/>
      <point x="550" y="0" type="line"/>
      <point x="550" y="360" type="line" smooth="yes"/>
      <point x="550" y="496"/>
      <point x="485" y="546"/>
      <point x="383" y="546" type="curve"/>
      <point x="54" y="546" type="line"/>
      <point x="48" y="516" type="line"/>
      <point x="381" y="516" type="line"/>
      <point x="465" y="516"/>
      <point x="522" y="478"/>
      <point x="522" y="360" type="curve" smooth="yes"/>
    </contour>
    <contour>
      <point x="114" y="0" type="line"/>
      <point x="142" y="0" type="line"/>
      <point x="142" y="332" type="line"/>
      <point x="142" y="411"/>
      <point x="158" y="483"/>
      <point x="181" y="518" type="curve"/>
      <point x="154" y="518" type="line"/>
      <point x="131" y="483"/>
      <point x="114" y="413"/>
      <point x="114" y="334" type="curve"/>
    </contour>
  </outline>
</glyph>
<glyph name="heTet" format="1">
  <advance width="600"/>
  <unicode hex="05D8"/>
  <outline>
    <contour>
      <point x="180" y="-12" type="line"/>
      <point x="373" y="7"/>
      <point x="542" y="188"/>
      <point x="542" y="406" type="curve" smooth="yes"/>
      <point x="542" y="520"/>
      <point x="496" y="558"/>
      <point x="402" y="558" type="curve" smooth="yes"/>
      <point x="386" y="558"/>
      <point x="364" y="556"/>
      <point x="342" y="552" type="curve"/>
      <point x="338" y="520" type="line"/>
      <point x="362" y="524"/>
      <point x="382" y="526"/>
      <point x="398" y="526" type="curve" smooth="yes"/>
      <point x="478" y="526"/>
      <point x="514" y="500"/>
      <point x="514" y="406" type="curve" smooth="yes"/>
      <point x="514" y="200"/>
      <point x="359" y="40"/>
      <point x="200" y="24" type="curve"/>
      <point x="76" y="552" type="line"/>
      <point x="48" y="546" type="line"/>
    </contour>
  </outline>
</glyph>
<glyph name="heKafFin" format="1">
  <advance width="526"/>
  <unicode hex="05DA"/>
  <outline>
    <contour>
      <point x="396" y="-200" type="line"/>
      <point x="424" y="-200" type="line"/>
      <point x="424" y="361" type="line"/>
      <point x="424" y="497"/>
      <point x="359" y="546"/>
      <point x="259" y="546" type="curve" smooth="yes"/>
      <point x="32" y="546" type="line"/>
      <point x="28" y="516" type="line"/>
      <point x="257" y="516" type="line" smooth="yes"/>
      <point x="339" y="516"/>
      <point x="396" y="478"/>
      <point x="396" y="361" type="curve"/>
    </contour>
  </outline>
</glyph>
<glyph name="heKaf" format="2">
	<unicode hex="05DB"/>
	<advance width="556"/>
	<outline>
		<contour>
			<point x="50" y="0" type="line"/>
			<point x="454" y="0" type="line"/>
			<point x="454" y="350" type="line" smooth="yes"/>
			<point x="454" y="494"/>
			<point x="385" y="546"/>
			<point x="278" y="546" type="curve" smooth="yes"/>
			<point x="80" y="546" type="line"/>
			<point x="80" y="516" type="line"/>
			<point x="272" y="516" type="line" smooth="yes"/>
			<point x="366" y="516"/>
			<point x="426" y="475"/>
			<point x="426" y="344" type="curve" smooth="yes"/>
			<point x="426" y="30" type="line"/>
			<point x="50" y="30" type="line"/>
		</contour>
	</outline>
</glyph>
<glyph name="heLamed" format="1">
  <advance width="472"/>
  <unicode hex="05DC"/>
  <outline>
    <contour>
      <point x="112" y="-12" type="line"/>
      <point x="352" y="104"/>
      <point x="414" y="262"/>
      <point x="414" y="396" type="curve" smooth="yes"/>
      <point x="414" y="500"/>
      <point x="376" y="546"/>
      <point x="262" y="546" type="curve" smooth="yes"/>
      <point x="76" y="546" type="line"/>
      <point x="76" y="720" type="line"/>
      <point x="48" y="720" type="line"/>
      <point x="48" y="516" type="line"/>
      <point x="256" y="516" type="line" smooth="yes"/>
      <point x="350" y="516"/>
      <point x="386" y="490"/>
      <point x="386" y="398" type="curve" smooth="yes"/>
      <point x="386" y="270"/>
      <point x="336" y="130"/>
      <point x="96" y="14" type="curve"/>
    </contour>
  </outline>
</glyph>
<glyph name="heMemFin" format="1">
  <advance width="646"/>
  <unicode hex="05DD"/>
  <outline>
    <contour>
      <point x="142" y="332" type="line"/>
      <point x="142" y="411"/>
      <point x="158" y="483"/>
      <point x="181" y="518" type="curve"/>
      <point x="154" y="518" type="line"/>
      <point x="131" y="483"/>
      <point x="114" y="413"/>
      <point x="114" y="334" type="curve"/>
      <point x="114" y="0" type="line"/>
      <point x="142" y="0" type="line"/>
    </contour>
    <contour>
      <point x="132" y="0" type="line"/>
      <point x="544" y="0" type="line"/>
      <point x="544" y="360" type="line" smooth="yes"/>
      <point x="544" y="496"/>
      <point x="479" y="545"/>
      <point x="379" y="545" type="curve"/>
      <point x="54" y="545" type="line"/>
      <point x="48" y="515" type="line"/>
      <point x="377" y="515" type="line"/>
      <point x="459" y="515"/>
      <point x="516" y="477"/>
      <point x="516" y="360" type="curve" smooth="yes"/>
      <point x="516" y="30" type="line"/>
      <point x="132" y="30" type="line"/>
    </contour>
  </outline>
</glyph>
<glyph name="heMem" format="1">
  <advance width="690.0"/>
  <unicode hex="05DE"/>
  <outline>
    <contour>
      <point x="268" y="-12" type="line"/>
      <point x="350" y="-1"/>
      <point x="464" y="0"/>
      <point x="580" y="0" type="curve"/>
      <point x="584" y="68"/>
      <point x="588" y="144"/>
      <point x="588" y="200" type="curve" smooth="yes"/>
      <point x="588" y="467"/>
      <point x="516" y="558"/>
      <point x="396" y="558" type="curve" smooth="yes"/>
      <point x="214" y="558"/>
      <point x="100" y="286"/>
      <point x="100" y="0" type="curve"/>
      <point x="128" y="0" type="line"/>
      <point x="128" y="276"/>
      <point x="238" y="526"/>
      <point x="394" y="526" type="curve" smooth="yes"/>
      <point x="494" y="526"/>
      <point x="556" y="447"/>
      <point x="556" y="200" type="curve" smooth="yes"/>
      <point x="556" y="144"/>
      <point x="554" y="88"/>
      <point x="550" y="30" type="curve"/>
      <point x="460" y="30"/>
      <point x="353" y="29"/>
      <point x="274" y="20" type="curve"/>
    </contour>
    <contour>
      <point x="171" y="364" type="curve"/>
      <point x="200" y="379" type="line"/>
      <point x="189" y="428"/>
      <point x="152" y="503"/>
      <point x="103" y="557" type="curve"/>
      <point x="78" y="538" type="line"/>
      <point x="127" y="488"/>
      <point x="168" y="399"/>
    </contour>
  </outline>
</glyph>
<glyph name="heNunFin" format="1">
  <advance width="306"/>
  <unicode hex="05DF"/>
  <outline>
    <contour>
      <point x="176" y="-200" type="line"/>
      <point x="204" y="-200" type="line"/>
      <point x="204" y="426" type="line" smooth="yes"/>
      <point x="204" y="503"/>
      <point x="186" y="538"/>
      <point x="126" y="546" type="curve" smooth="yes"/>
      <point x="34" y="558" type="line"/>
      <point x="28" y="528" type="line"/>
      <point x="110" y="516" type="line" smooth="yes"/>
      <point x="160" y="509"/>
      <point x="176" y="490"/>
      <point x="176" y="427" type="curve" smooth="yes"/>
    </contour>
  </outline>
</glyph>
<glyph name="heNun" format="1">
  <advance width="392"/>
  <unicode hex="05E0"/>
  <outline>
    <contour>
      <point x="48" y="-12" type="line"/>
      <point x="129" y="-3"/>
      <point x="209" y="0"/>
      <point x="290" y="0" type="curve"/>
      <point x="290" y="422" type="line"/>
      <point x="289" y="496"/>
      <point x="273" y="524"/>
      <point x="217" y="537" type="curve"/>
      <point x="84" y="558" type="line"/>
      <point x="78" y="528" type="line"/>
      <point x="196" y="510" type="line" smooth="yes"/>
      <point x="248" y="502"/>
      <point x="262" y="485"/>
      <point x="262" y="423" type="curve" smooth="yes"/>
      <point x="262" y="30" type="line"/>
      <point x="191" y="29"/>
      <point x="121" y="26"/>
      <point x="54" y="18" type="curve"/>
    </contour>
  </outline>
</glyph>
<glyph name="heSamekh" format="1">
  <advance width="640"/>
  <unicode hex="05E1"/>
  <outline>
    <contour>
      <point x="232" y="-12" type="curve"/>
      <point x="419" y="6"/>
      <point x="582" y="188"/>
      <point x="582" y="406" type="curve" smooth="yes"/>
      <point x="582" y="508"/>
      <point x="545" y="546"/>
      <point x="430" y="546" type="curve" smooth="yes"/>
      <point x="34" y="546" type="line"/>
      <point x="28" y="516" type="line"/>
      <point x="424" y="516" type="line" smooth="yes"/>
      <point x="519" y="516"/>
      <point x="554" y="494"/>
      <point x="554" y="406" type="curve" smooth="yes"/>
      <point x="554" y="200"/>
      <point x="408" y="42"/>
      <point x="248" y="24" type="curve"/>
      <point x="195" y="140"/>
      <point x="140" y="316"/>
      <point x="140" y="390" type="curve" smooth="yes"/>
      <point x="140" y="445"/>
      <point x="163" y="489"/>
      <point x="181" y="518" type="curve"/>
      <point x="154" y="518" type="line"/>
      <point x="136" y="489"/>
      <point x="112" y="446"/>
      <point x="112" y="392" type="curve" smooth="yes"/>
      <point x="112" y="318"/>
      <point x="174" y="120"/>
    </contour>
  </outline>
</glyph>
<glyph name="hePeFin" format="1">
  <advance width="546"/>
  <unicode hex="05E3"/>
  <outline>
    <contour>
      <point x="416" y="-200" type="line"/>
      <point x="444" y="-200" type="line"/>
      <point x="444" y="288" type="line" smooth="yes"/>
      <point x="444" y="455"/>
      <point x="402" y="517"/>
      <point x="286" y="532" type="curve" smooth="yes"/>
      <point x="90" y="558" type="line"/>
      <point x="60" y="426"/>
      <point x="54" y="402"/>
      <point x="54" y="366" type="curve" smooth="yes"/>
      <point x="54" y="293"/>
      <point x="103" y="254"/>
      <point x="186" y="236" type="curve"/>
      <point x="196" y="264" type="line"/>
      <point x="120" y="278"/>
      <point x="80" y="311"/>
      <point x="80" y="364" type="curve" smooth="yes"/>
      <point x="80" y="402"/>
      <point x="86" y="422"/>
      <point x="110" y="528" type="curve"/>
      <point x="286" y="504" type="line" smooth="yes"/>
      <point x="382" y="491"/>
      <point x="416" y="437"/>
      <point x="416" y="288" type="curve"/>
    </contour>
  </outline>
</glyph>
<glyph name="hePe" format="2">
	<unicode hex="05E4"/>
	<advance width="556"/>
	<outline>
		<contour>
			<point x="50" y="0" type="line"/>
			<point x="454" y="0" type="line"/>
			<point x="454" y="350" type="line" smooth="yes"/>
			<point x="454" y="494"/>
			<point x="385" y="546"/>
			<point x="278" y="546" type="curve" smooth="yes"/>
			<point x="60" y="546" type="line"/>
			<point x="60" y="516" type="line"/>
			<point x="272" y="516" type="line" smooth="yes"/>
			<point x="366" y="516"/>
			<point x="426" y="475"/>
			<point x="426" y="344" type="curve" smooth="yes"/>
			<point x="426" y="30" type="line"/>
			<point x="50" y="30" type="line"/>
		</contour>
		<contour>
			<point x="196" y="240" type="curve" smooth="yes"/>
			<point x="226" y="240" type="line"/>
			<point x="226" y="272" type="line"/>
			<point x="200" y="272" type="line" smooth="yes"/>
			<point x="130" y="272"/>
			<point x="84" y="295"/>
			<point x="84" y="376" type="curve" smooth="yes"/>
			<point x="84" y="466"/>
			<point x="145" y="516"/>
			<point x="232" y="516" type="curve"/>
			<point x="232" y="536" type="line"/>
			<point x="122" y="536"/>
			<point x="56" y="478"/>
			<point x="56" y="376" type="curve" smooth="yes"/>
			<point x="56" y="273"/>
			<point x="112" y="240"/>
		</contour>
	</outline>
</glyph>
<glyph name="heTsadiFin" format="2">
	<unicode hex="05E5"/>
	<advance width="542"/>
	<outline>
		<contour>
			<point x="202" y="103" type="line"/>
			<point x="370" y="210"/>
			<point x="484" y="342"/>
			<point x="484" y="448" type="curve" smooth="yes"/>
			<point x="484" y="516"/>
			<point x="460" y="546"/>
			<point x="386" y="546" type="curve" smooth="yes"/>
			<point x="314" y="546" type="line"/>
			<point x="314" y="516" type="line"/>
			<point x="372" y="516" type="line" smooth="yes"/>
			<point x="443" y="516"/>
			<point x="456" y="495"/>
			<point x="456" y="450" type="curve" smooth="yes"/>
			<point x="456" y="342"/>
			<point x="358" y="230"/>
			<point x="174" y="119" type="curve"/>
		</contour>
		<contour>
			<point x="146" y="-200" type="line"/>
			<point x="174" y="-200" type="line"/>
			<point x="174" y="390" type="line" smooth="yes"/>
			<point x="174" y="514"/>
			<point x="130" y="546"/>
			<point x="38" y="546" type="curve" smooth="yes"/>
			<point x="4" y="546" type="line"/>
			<point x="4" y="516" type="line"/>
			<point x="32" y="516" type="line" smooth="yes"/>
			<point x="110" y="516"/>
			<point x="146" y="495"/>
			<point x="146" y="384" type="curve" smooth="yes"/>
		</contour>
	</outline>
</glyph>
<glyph name="heTsadi" format="1">
  <advance width="498"/>
  <unicode hex="05E6"/>
  <outline>
    <contour>
      <point x="318" y="170" type="line"/>
      <point x="392" y="272"/>
      <point x="444" y="384"/>
      <point x="444" y="468" type="curve" smooth="yes"/>
      <point x="444" y="534"/>
      <point x="417" y="558"/>
      <point x="360" y="558" type="curve" smooth="yes"/>
      <point x="340" y="558"/>
      <point x="316" y="558"/>
      <point x="284" y="552" type="curve"/>
      <point x="280" y="520" type="line"/>
      <point x="314" y="526"/>
      <point x="336" y="526"/>
      <point x="356" y="526" type="curve" smooth="yes"/>
      <point x="397" y="526"/>
      <point x="416" y="512"/>
      <point x="416" y="470" type="curve" smooth="yes"/>
      <point x="416" y="393"/>
      <point x="372" y="286"/>
      <point x="294" y="186" type="curve"/>
    </contour>
    <contour>
      <point x="48" y="-12" type="line"/>
      <point x="158" y="-2"/>
      <point x="290" y="0"/>
      <point x="452" y="0" type="curve"/>
      <point x="458" y="30" type="line"/>
      <point x="296" y="28"/>
      <point x="160" y="30"/>
      <point x="54" y="18" type="curve"/>
    </contour>
    <contour>
      <point x="436" y="10" type="curve"/>
      <point x="458" y="30" type="line"/>
      <point x="311" y="198"/>
      <point x="157" y="384"/>
      <point x="48" y="558" type="curve"/>
      <point x="18" y="546" type="line"/>
      <point x="131" y="365"/>
      <point x="296" y="166"/>
    </contour>
  </outline>
</glyph>
<glyph name="heQof" format="1">
  <advance width="580"/>
  <unicode hex="05E7"/>
  <outline>
    <contour>
      <point x="142" y="-200" type="line"/>
      <point x="142" y="336" type="line"/>
      <point x="114" y="336" type="line"/>
      <point x="114" y="-200" type="line"/>
    </contour>
    <contour>
      <point x="370" y="546" type="curve"/>
      <point x="110" y="546" type="line"/>
      <point x="104" y="516" type="line"/>
      <point x="364" y="516" type="line"/>
      <point x="458" y="516"/>
      <point x="494" y="490"/>
      <point x="494" y="398" type="curve" smooth="yes"/>
      <point x="494" y="270"/>
      <point x="444" y="130"/>
      <point x="204" y="14" type="curve"/>
      <point x="220" y="-12" type="line"/>
      <point x="460" y="104"/>
      <point x="522" y="262"/>
      <point x="522" y="396" type="curve" smooth="yes"/>
      <point x="522" y="500"/>
      <point x="484" y="546"/>
    </contour>
  </outline>
</glyph>
<glyph name="heResh" format="1">
  <advance width="506"/>
  <unicode hex="05E8"/>
  <outline>
    <contour>
      <point x="376" y="0" type="line"/>
      <point x="404" y="0" type="line"/>
      <point x="404" y="360" type="line" smooth="yes"/>
      <point x="404" y="496"/>
      <point x="339" y="545"/>
      <point x="239" y="545" type="curve"/>
      <point x="34" y="545" type="line"/>
      <point x="28" y="515" type="line"/>
      <point x="237" y="515" type="line"/>
      <point x="319" y="515"/>
      <point x="376" y="477"/>
      <point x="376" y="360" type="curve" smooth="yes"/>
    </contour>
  </outline>
</glyph>
<glyph name="heShin" format="1">
  <advance width="680"/>
  <unicode hex="05E9"/>
  <outline>
    <contour>
      <point x="200" y="-12" type="line"/>
      <point x="436" y="11"/>
      <point x="642" y="207"/>
      <point x="642" y="446" type="curve" smooth="yes"/>
      <point x="642" y="530"/>
      <point x="609" y="558"/>
      <point x="542" y="558" type="curve" smooth="yes"/>
      <point x="526" y="558"/>
      <point x="504" y="556"/>
      <point x="482" y="552" type="curve"/>
      <point x="478" y="520" type="line"/>
      <point x="502" y="524"/>
      <point x="522" y="526"/>
      <point x="538" y="526" type="curve" smooth="yes"/>
      <point x="590" y="526"/>
      <point x="614" y="509"/>
      <point x="614" y="446" type="curve" smooth="yes"/>
      <point x="614" y="218"/>
      <point x="419" y="44"/>
      <point x="220" y="24" type="curve"/>
      <point x="76" y="552" type="line"/>
      <point x="48" y="546" type="line"/>
    </contour>
    <contour>
      <point x="238" y="170" type="line"/>
      <point x="324" y="283"/>
      <point x="404" y="395"/>
      <point x="404" y="468" type="curve" smooth="yes"/>
      <point x="404" y="534"/>
      <point x="380" y="558"/>
      <point x="330" y="558" type="curve" smooth="yes"/>
      <point x="315" y="558"/>
      <point x="298" y="556"/>
      <point x="274" y="552" type="curve"/>
      <point x="270" y="520" type="line"/>
      <point x="295" y="524"/>
      <point x="311" y="526"/>
      <point x="326" y="526" type="curve" smooth="yes"/>
      <point x="360" y="526"/>
      <point x="376" y="512"/>
      <point x="376" y="470" type="curve" smooth="yes"/>
      <point x="376" y="393"/>
      <point x="303" y="300"/>
      <point x="214" y="186" type="curve"/>
    </contour>
  </outline>
</glyph>
<glyph name="heTav" format="1">
  <advance width="694"/>
  <unicode hex="05EA"/>
  <outline>
    <contour>
      <point x="52" y="-12" type="line"/>
      <point x="100" y="-4"/>
      <point x="172" y="0"/>
      <point x="198" y="0" type="curve"/>
      <point x="190" y="130"/>
      <point x="184" y="240"/>
      <point x="184" y="332" type="curve" smooth="yes"/>
      <point x="184" y="412"/>
      <point x="200" y="483"/>
      <point x="224" y="518" type="curve"/>
      <point x="196" y="518" type="line"/>
      <point x="173" y="483"/>
      <point x="156" y="414"/>
      <point x="156" y="334" type="curve" smooth="yes"/>
      <point x="156" y="252"/>
      <point x="164" y="150"/>
      <point x="170" y="30" type="curve"/>
      <point x="156" y="30"/>
      <point x="94" y="26"/>
      <point x="58" y="18" type="curve"/>
    </contour>
    <contour>
      <point x="564" y="0" type="line"/>
      <point x="592" y="0" type="line"/>
      <point x="592" y="360" type="line" smooth="yes"/>
      <point x="592" y="497"/>
      <point x="527" y="546"/>
      <point x="427" y="546" type="curve"/>
      <point x="86" y="546" type="line"/>
      <point x="80" y="516" type="line"/>
      <point x="425" y="516" type="line"/>
      <point x="507" y="516"/>
      <point x="564" y="478"/>
      <point x="564" y="360" type="curve" smooth="yes"/>
    </contour>
  </outline>
</glyph>
<glyph name="Adieresis" format="1">
	<advance width="520"/>
	<outline>
		<component base="A"/>
		<component base="dieresiscmb.cap" xOffset="260"/>
		<contour>
			<point name="ogonekUC" x="456" y="0" type="move"/>
		</contour>
	</outline>
</glyph>
<glyph name="L" format="1">
	<advance width="460"/>
	<outline>
		<contour>
			<point x="100" y="0" type="line"/>
			<point x="442" y="0" type="line"/>
			<point x="442" y="28" type="line"/>
			<point x="132" y="28" type="line"/>
			<point x="132" y="660" type="line"/>
			<point x="100" y="660" type="line"/>
		</contour>
		<contour>
			<point name="aboveUC" x="116" y="680" type="move"/>
		</contour>
		<contour>
			<point name="belowLC" x="288" y="-20" type="move"/>
		</contour>
		<contour>
			<point name="center" x="230" y="0" type="move"/>
		</contour>
		<contour>
			<point name="baseLC" x="230" y="0" type="move"/>
		</contour>
	</outline>
</glyph>
<glyph name="Oslash" format="1">
	<advance width="648"/>
	<outline>
		<contour>
			<point x="80" y="-20" type="line"/>
			<point x="586" y="664" type="line"/>
			<point x="564" y="680" type="line"/>
			<point x="58" y="-4" type="line"/>
		</contour>
		<component base="O" xOffset="4"/>
		<contour>
			<point name="aboveUC" x="328" y="680" type="move"/>
		</contour>
		<contour>
			<point name="baseLC" x="324" y="0" type="move"/>
		</contour>
	</outline>
</glyph>
<glyph name="dezh" format="1">
	<advance width="844"/>
	<outline>
		<contour>
			<point x="437" y="450" type="line"/>
			<point x="522" y="450" type="line"/>
			<point x="522" y="478" type="line"/>
			<point x="437" y="478" type="line"/>
		</contour>
		<component base="d"/>
		<component base="ezh" xOffset="448"/>
		<contour>
			<point name="aboveUC" x="420" y="730" type="move"/>
		</contour>
		<contour>
			<point name="belowLC" x="292" y="-20" type="move"/>
		</contour>
	</outline>
</glyph>
<glyph name="heAyin" format="1">
	<advance width="525"/>
	<outline>
		<contour>
			<point x="223" y="24" type="line"/>
			<point x="393" y="74"/>
			<point x="418" y="180"/>
			<point x="416" y="315" type="curve"/>
			<point x="416" y="545" type="line"/>
			<point x="384" y="545" type="line"/>
			<point x="384" y="315" type="line"/>
			<point x="388" y="193"/>
			<point x="372" y="100"/>
			<point x="224" y="52" type="curve"/>
			<point x="55" y="6" type="line"/>
			<point x="60" y="-21" type="line"/>
		</contour>
		<contour>
			<point x="231" y="37" type="line"/>
			<point x="96" y="545" type="line"/>
			<point x="64" y="545" type="line"/>
			<point x="199" y="37" type="line"/>
		</contour>
	</outline>
</glyph>
<glyph name="heYod" format="1">
	<advance width="199"/>
	<outline>
		<contour>
			<point x="115" y="545" type="line"/>
			<point x="129" y="428" type="line"/>
			<point x="129" y="253" type="line"/>
			<point x="128" y="190" type="line"/>
			<point x="101" y="190" type="line"/>
			<point x="97" y="253" type="line"/>
			<point x="97" y="428" type="line"/>
			<point x="83" y="545" type="line"/>
		</contour>
	</outline>
</glyph>
<glyph name="pnDelt" format="2">
	<advance width="542"/>
	<outline>
		<contour>
			<point x="442" y="0" type="line"/>
			<point x="442" y="510" type="line"/>
			<point x="316" y="510" type="line" smooth="yes"/>
			<point x="144" y="510"/>
			<point x="64" y="409"/>
			<point x="64" y="256" type="curve" smooth="yes"/>
			<point x="64" y="103"/>
			<point x="144" y="0"/>
			<point x="316" y="0" type="curve" smooth="yes"/>
		</contour>
		<contour>
			<point x="414" y="30" type="line"/>
			<point x="320" y="30" type="line" smooth="yes"/>
			<point x="161" y="30"/>
			<point x="94" y="115"/>
			<point x="94" y="256" type="curve" smooth="yes"/>
			<point x="94" y="387"/>
			<point x="161" y="479"/>
			<point x="320" y="479" type="curve" smooth="yes"/>
			<point x="414" y="479" type="line"/>
		</contour>
		<contour>
			<point x="442" y="-120" type="line"/>
			<point x="442" y="30" type="line"/>
			<point x="414" y="30" type="line"/>
			<point x="414" y="-120" type="line"/>
		</contour>
	</outline>
</glyph>
<glyph name="pnMem" format="2">
	<advance width="690"/>
	<outline>
		<contour>
			<point x="268" y="0" type="line"/>
			<point x="580" y="0" type="line"/>
			<point x="584" y="68"/>
			<point x="588" y="144"/>
			<point x="588" y="200" type="curve" smooth="yes"/>
			<point x="588" y="467"/>
			<point x="516" y="558"/>
			<point x="396" y="558" type="curve" smooth="yes"/>
			<point x="214" y="558"/>
			<point x="100" y="286"/>
			<point x="100" y="0" type="curve"/>
			<point x="128" y="0" type="line"/>
			<point x="128" y="276"/>
			<point x="238" y="526"/>
			<point x="394" y="526" type="curve" smooth="yes"/>
			<point x="494" y="526"/>
			<point x="556" y="447"/>
			<point x="556" y="200" type="curve" smooth="yes"/>
			<point x="556" y="144"/>
			<point x="554" y="88"/>
			<point x="550" y="30" type="curve"/>
			<point x="274" y="32" type="line"/>
		</contour>
		<contour>
			<point x="171" y="364" type="curve"/>
			<point x="200" y="379" type="line"/>
			<point x="189" y="428"/>
			<point x="152" y="503"/>
			<point x="103" y="557" type="curve"/>
			<point x="78" y="538" type="line"/>
			<point x="127" y="488"/>
			<point x="168" y="399"/>
		</contour>
	</outline>
</glyph>
<glyph name="pnPe" format="2">
	<advance width="564"/>
	<outline>
		<contour>
			<point x="98" y="240" type="line"/>
			<point x="126" y="240" type="line"/>
			<point x="126" y="312" type="line" smooth="yes"/>
			<point x="126" y="449"/>
			<point x="199" y="488"/>
			<point x="282" y="488" type="curve" smooth="yes"/>
			<point x="364" y="488"/>
			<point x="438" y="449"/>
			<point x="438" y="312" type="curve" smooth="yes"/>
			<point x="438" y="-120" type="line"/>
			<point x="466" y="-120" type="line"/>
			<point x="466" y="318" type="line" smooth="yes"/>
			<point x="466" y="478"/>
			<point x="373" y="522"/>
			<point x="282" y="522" type="curve" smooth="yes"/>
			<point x="190" y="522"/>
			<point x="98" y="478"/>
			<point x="98" y="318" type="curve" smooth="yes"/>
		</contour>
	</outline>
</glyph>
<glyph name="pnQof" format="2">
	<advance width="568"/>
	<outline>
		<contour>
			<point x="270" y="-120" type="line"/>
			<point x="298" y="-120" type="line"/>
			<point x="298" y="502" type="line"/>
			<point x="270" y="502" type="line"/>
		</contour>
		<contour>
			<point x="284" y="68" type="curve" smooth="yes"/>
			<point x="416" y="68"/>
			<point x="512" y="157"/>
			<point x="512" y="296" type="curve" smooth="yes"/>
			<point x="512" y="434"/>
			<point x="416" y="522"/>
			<point x="284" y="522" type="curve" smooth="yes"/>
			<point x="151" y="522"/>
			<point x="56" y="434"/>
			<point x="56" y="296" type="curve" smooth="yes"/>
			<point x="56" y="157"/>
			<point x="151" y="68"/>
		</contour>
		<contour>
			<point x="284" y="102" type="curve" smooth="yes"/>
			<point x="165" y="102"/>
			<point x="86" y="177"/>
			<point x="86" y="296" type="curve" smooth="yes"/>
			<point x="86" y="415"/>
			<point x="165" y="488"/>
			<point x="284" y="488" type="curve" smooth="yes"/>
			<point x="402" y="488"/>
			<point x="482" y="415"/>
			<point x="482" y="296" type="curve" smooth="yes"/>
			<point x="482" y="177"/>
			<point x="402" y="102"/>
		</contour>
	</outline>
</glyph>
<glyph name="pnRosh" format="2">
	<advance width="500"/>
	<outline>
		<contour>
			<point x="400" y="510" type="line"/>
			<point x="238" y="510" type="line" smooth="yes"/>
			<point x="112" y="510"/>
			<point x="44" y="450"/>
			<point x="44" y="332" type="curve" smooth="yes"/>
			<point x="44" y="209"/>
			<point x="122" y="162"/>
			<point x="242" y="162" type="curve" smooth="yes"/>
			<point x="372" y="162" type="line"/>
			<point x="372" y="-120" type="line"/>
			<point x="400" y="-120" type="line"/>
		</contour>
		<contour>
			<point x="372" y="480" type="line"/>
			<point x="372" y="192" type="line"/>
			<point x="252" y="192" type="line" smooth="yes"/>
			<point x="133" y="192"/>
			<point x="72" y="233"/>
			<point x="72" y="334" type="curve" smooth="yes"/>
			<point x="72" y="434"/>
			<point x="131" y="480"/>
			<point x="248" y="480" type="curve" smooth="yes"/>
		</contour>
	</outline>
</glyph>
<glyph name="pnTau" format="2">
	<advance width="496"/>
	<outline>
		<contour>
			<point x="20" y="246" type="line"/>
			<point x="476" y="246" type="line"/>
			<point x="476" y="278" type="line"/>
			<point x="20" y="278" type="line"/>
		</contour>
		<contour>
			<point x="234" y="0" type="line"/>
			<point x="262" y="0" type="line"/>
			<point x="262" y="510" type="line"/>
			<point x="234" y="510" type="line"/>
		</contour>
	</outline>
</glyph>
<glyph name="pnTet" format="2">
	<advance width="568"/>
	<outline>
		<contour>
			<point x="162" y="246" type="line"/>
			<point x="406" y="246" type="line"/>
			<point x="406" y="278" type="line"/>
			<point x="162" y="278" type="line"/>
		</contour>
		<contour>
			<point x="270" y="130" type="line"/>
			<point x="298" y="130" type="line"/>
			<point x="298" y="392" type="line"/>
			<point x="270" y="392" type="line"/>
		</contour>
		<component base="pnAin"/>
	</outline>
</glyph>
<glyph name="pnWau" format="2">
	<advance width="538"/>
	<outline>
		<contour>
			<point x="256" y="-120" type="line"/>
			<point x="284" y="-120" type="line"/>
			<point x="284" y="180" type="line"/>
			<point x="256" y="180" type="line"/>
		</contour>
		<contour>
			<point x="259" y="162" type="curve" smooth="yes"/>
			<point x="280" y="162" type="line" smooth="yes"/>
			<point x="397" y="162"/>
			<point x="466" y="230"/>
			<point x="466" y="383" type="curve" smooth="yes"/>
			<point x="466" y="510" type="line"/>
			<point x="438" y="510" type="line"/>
			<point x="438" y="384" type="line" smooth="yes"/>
			<point x="438" y="258"/>
			<point x="385" y="192"/>
			<point x="280" y="192" type="curve" smooth="yes"/>
			<point x="259" y="192" type="line" smooth="yes"/>
			<point x="153" y="192"/>
			<point x="100" y="258"/>
			<point x="100" y="384" type="curve" smooth="yes"/>
			<point x="100" y="510" type="line"/>
			<point x="72" y="510" type="line"/>
			<point x="72" y="383" type="line" smooth="yes"/>
			<point x="72" y="230"/>
			<point x="141" y="162"/>
		</contour>
	</outline>
</glyph>
<glyph name="pnYod" format="2">
	<advance width="472"/>
	<outline>
		<contour>
			<point x="122" y="246" type="line"/>
			<point x="366" y="246" type="line"/>
			<point x="366" y="278" type="line"/>
			<point x="122" y="278" type="line"/>
		</contour>
		<component base="pnZai"/>
	</outline>
</glyph>
